:version 1.10
:name ASF
:units
  mass 1
  length 1
  angle deg
:documentation
  ASF file generated by Kaydara
:root
  axis xyz
  order  tx ty tz rx ry rz
  position 0 0 0
  orientation 0 0 0
:bonedata
  begin
    id 1
    name lfemurDummy
    direction 0.61522 -0.761478 0.204097
    length 5.68318
    axis 0 -0 0 xyz
  end
  begin
    id 2
    name lfemur
    direction 0.34202 -0.939693 -5.84747e-008
    length 16.9147
    axis 0 -0 20 xyz
    dof rx ry rz
    limits( -inf , inf )
( -inf , inf )
( -inf , inf )

  end
  begin
    id 3
    name ltibia
    direction 0.34202 -0.939693 1.20839e-009
    length 18.0532
    axis 0 -0 20 xyz
    dof rz ry rx
    limits( -inf , inf )
( -inf , inf )
( -inf , inf )

  end
  begin
    id 4
    name lfoot
    direction 0.0841971 -0.23133 0.969225
    length 5.23822
    axis -90 7.62852e-016 20 xyz
    dof ry rx rz
    limits( -inf , inf )
( -inf , inf )
( -inf , inf )

  end
  begin
    id 5
    name ltoes
    direction 0 0 0
    length 0
    axis 0 0 0 xyz
    dof rz ry rx
    limits( -inf , inf )
( -inf , inf )
( -inf , inf )

  end
  begin
    id 6
    name rfemurDummy
    direction -0.625247 -0.75382 0.202044
    length 5.74091
    axis 0 -0 0 xyz
  end
  begin
    id 7
    name rfemur
    direction -0.34202 -0.939693 -1.47013e-008
    length 16.4922
    axis 0 -0 -20 xyz
    dof rx ry rz
    limits( -inf , inf )
( -inf , inf )
( -inf , inf )

  end
  begin
    id 8
    name rtibia
    direction -0.34202 -0.939693 -7.74345e-010
    length 18.2421
    axis 0 -0 -20 xyz
    dof rz ry rx
    limits( -inf , inf )
( -inf , inf )
( -inf , inf )

  end
  begin
    id 9
    name rfoot
    direction -0.124331 -0.341598 0.931586
    length 5.45787
    axis -90 -7.62852e-016 -20 xyz
    dof ry rx rz
    limits( -inf , inf )
( -inf , inf )
( -inf , inf )

  end
  begin
    id 10
    name rtoes
    direction 0 0 0
    length 0
    axis 0 0 0 xyz
    dof rz ry rx
    limits( -inf , inf )
( -inf , inf )
( -inf , inf )

  end
  begin
    id 11
    name lowerbackDummy
    direction 0 0 0
    length 0
    axis 0 -0 0 xyz
  end
  begin
    id 12
    name lowerback
    direction -0.0218484 0.994884 -0.0986304
    length 4.45607
    axis 0 -0 0 xyz
    dof rx ry rz
    limits( -inf , inf )
( -inf , inf )
( -inf , inf )

  end
  begin
    id 13
    name upperback
    direction -0.00973057 0.999717 -0.0217111
    length 4.47449
    axis 0 -0 0 xyz
    dof rx ry rz
    limits( -inf , inf )
( -inf , inf )
( -inf , inf )

  end
  begin
    id 14
    name thorax
    direction -0.000928171 0.999699 0.0245198
    length 4.50973
    axis 0 -0 0 xyz
    dof rx ry rz
    limits( -inf , inf )
( -inf , inf )
( -inf , inf )

  end
  begin
    id 15
    name rclavicle
    direction -0.9009 0.425937 -0.0834055
    length 7.28587
    axis 0 -0 0 xyz
    dof rx ry rz
    limits( -inf , inf )
( -inf , inf )
( -inf , inf )

  end
  begin
    id 16
    name rhumerus
    direction -1 -2.23604e-007 -1.42637e-007
    length 13.5704
    axis 180 30 90 xyz
    dof rx ry rz
    limits( -inf , inf )
( -inf , inf )
( -inf , inf )

  end
  begin
    id 17
    name rradius
    direction -1 5.68281e-008 -4.4952e-007
    length 8.06782
    axis 180 30 90 xyz
    dof rz ry rx
    limits( -inf , inf )
( -inf , inf )
( -inf , inf )

  end
  begin
    id 18
    name rwrist
    direction -1 1.51393e-007 1.38143e-007
    length 4.03391
    axis -90 -90 0 xyz
    dof rz rx ry
    limits( -inf , inf )
( -inf , inf )
( -inf , inf )

  end
  begin
    id 19
    name rthumb
    direction 0 0 0
    length 0
    axis 0 0 0 xyz
    dof ry rx rz
    limits( -inf , inf )
( -inf , inf )
( -inf , inf )

  end
  begin
    id 20
    name rhand
    direction -1 -3.34077e-007 -5.59631e-007
    length 1.29744
    axis -90 -90 0 xyz
    dof ry rx rz
    limits( -inf , inf )
( -inf , inf )
( -inf , inf )

  end
  begin
    id 21
    name rfingers
    direction 0 0 0
    length 0
    axis 0 0 0 xyz
    dof rz ry rx
    limits( -inf , inf )
( -inf , inf )
( -inf , inf )

  end
  begin
    id 22
    name lclavicle
    direction 0.940017 0.332249 -0.0773232
    length 8.29589
    axis 0 -0 0 xyz
    dof rx ry rz
    limits( -inf , inf )
( -inf , inf )
( -inf , inf )

  end
  begin
    id 23
    name lhumerus
    direction 1 7.41158e-008 -1.44768e-008
    length 12.0042
    axis 180 -30 -90 xyz
    dof rx ry rz
    limits( -inf , inf )
( -inf , inf )
( -inf , inf )

  end
  begin
    id 24
    name lradius
    direction 1 -1.32972e-007 3.10821e-007
    length 8.1902
    axis 180 -30 -90 xyz
    dof rz ry rx
    limits( -inf , inf )
( -inf , inf )
( -inf , inf )

  end
  begin
    id 25
    name lwrist
    direction 1 3.08957e-007 4.01394e-007
    length 4.09509
    axis -90 90 0 xyz
    dof rz rx ry
    limits( -inf , inf )
( -inf , inf )
( -inf , inf )

  end
  begin
    id 26
    name lthumb
    direction 0 0 0
    length 0
    axis 0 0 0 xyz
    dof ry rx rz
    limits( -inf , inf )
( -inf , inf )
( -inf , inf )

  end
  begin
    id 27
    name lhand
    direction 1 -1.64125e-007 -6.99514e-007
    length 1.37229
    axis -90 90 0 xyz
    dof ry rx rz
    limits( -inf , inf )
( -inf , inf )
( -inf , inf )

  end
  begin
    id 28
    name lfingers
    direction 0 0 0
    length 0
    axis 0 0 0 xyz
    dof rz ry rx
    limits( -inf , inf )
( -inf , inf )
( -inf , inf )

  end
  begin
    id 29
    name lowerneck
    direction -0.030798 0.998024 0.0547665
    length 3.93918
    axis 0 -0 0 xyz
    dof rx ry rz
    limits( -inf , inf )
( -inf , inf )
( -inf , inf )

  end
  begin
    id 30
    name upperneck
    direction 0.0531588 0.996611 -0.0627736
    length 3.95491
    axis 0 -0 0 xyz
    dof rx ry rz
    limits( -inf , inf )
( -inf , inf )
( -inf , inf )

  end
  begin
    id 31
    name head
    direction 0 0 0
    length 0
    axis 0 0 0 xyz
    dof rx ry rz
    limits( -inf , inf )
( -inf , inf )
( -inf , inf )

  end
:hierarchy
  begin
    root lfemurDummy rfemurDummy lowerbackDummy
    lfemurDummy lfemur
    lfemur ltibia
    ltibia lfoot
    lfoot ltoes
    rfemurDummy rfemur
    rfemur rtibia
    rtibia rfoot
    rfoot rtoes
    lowerbackDummy lowerback
    lowerback upperback
    upperback thorax
    thorax rclavicle lclavicle lowerneck
    rclavicle rhumerus
    rhumerus rradius
    rradius rwrist
    rwrist rthumb rhand
    rhand rfingers
    lclavicle lhumerus
    lhumerus lradius
    lradius lwrist
    lwrist lthumb lhand
    lhand lfingers
    lowerneck upperneck
    upperneck head
  end

:SAMPLES-PER-SECOND 30
:FULLY-SPECIFIED
:DEGREES
93
root  16.30340036 35.27822119 -5.588777797 -14.06169987 -54.89789963 12.04329967
lowerback  8.9373703 3.333940029 -2.699369907
upperback  4.663149834 4.058310032 -3.49909997
thorax  -0.09365490079 1.974249959 -2.461380005
lowerneck  2.854830027 7.925419807 -10.34119987
upperneck  18.89310074 10.24370003 2.570250034
head  4.6010499 4.337510109 2.727999926
lclavicle  0 -9.442270133e-015 7.951389973e-016
lhumerus  9.659239769 -0.8891860247 77.17620087
lradius  2.563126311e-031 -2.428832548e-031 136.5410004
lwrist  -1.412450015e-030 -0 12.35079956
lhand  -1.496451383e-031 -27.76390076 20.11240005
lfingers  90 7.125020027 -90
lthumb  89.89689403 5.08795885 91.16245106
rclavicle  0 -9.442270133e-015 7.951389973e-016
rhumerus  13.41800022 15.92930031 -75.9131012
rradius  -2.733502396e-031 2.235354265e-031 140.7250061
rwrist  7.062250077e-031 -8.827812596e-032 -17.58390045
rhand  -7.920061211e-032 -33.2840004 9.303460121
rfingers  -90 -7.125020027 -90
rthumb  -92.93752616 -24.25625642 -97.11982154
rfemur  -12.76410007 10.69550037 -2.462409973
rtibia  -0 0 72.26429749
rfoot  -0 -27.50639915 -16.05179977
rtoes  5.373923086 19.29304026 -105.8922705
lfemur  -24.31509972 -5.318329811 -3.346889973
ltibia  -0 0 58.6794014
lfoot  -0 -20.27090073 -10.27799988
ltoes  -4.250644065 -19.5611806 -102.515957
94
root  16.35686619 35.28133302 -5.536600173 -14.6473999 -54.75350189 12.33469963
lowerback  8.937740326 3.3854599 -2.70272994
upperback  4.739510059 4.134640217 -3.253779888
thorax  -0.03198910132 2.010070086 -2.209939957
lowerneck  3.049329996 8.007740021 -10.3998003
upperneck  17.8852005 10.31000042 2.699700117
head  4.242519855 4.426809788 2.733350039
lclavicle  0 -9.442270133e-015 7.951389973e-016
lhumerus  9.462670326 -0.8135049939 77.31809998
lradius  2.552291018e-031 -2.440216097e-031 136.2859955
lwrist  -7.062250077e-031 -0 12.48970032
lhand  -1.496451383e-031 -27.76390076 20.11240005
lfingers  90 7.125020027 -90
lthumb  89.89689403 5.08795885 91.16245106
rclavicle  0 -9.442270133e-015 7.951389973e-016
rhumerus  13.05350018 16.7798996 -76.27059937
rradius  -2.706067729e-031 2.268488811e-031 140.0269928
rwrist  7.062250077e-031 -0 -16.99850082
rhand  -7.920061211e-032 -33.2840004 9.303460121
rfingers  -90 -7.125020027 -90
rthumb  -92.93752616 -24.25625642 -97.11982154
rfemur  -12.84899998 9.663399696 -3.099270105
rtibia  -0 0 72.5306015
rfoot  -0 -27.01959991 -15.34290028
rtoes  5.373923086 19.29304026 -105.8922705
lfemur  -23.90710068 -5.443640232 -3.792629957
ltibia  -0 0 58.57260132
lfoot  -0 -20.55279922 -10.22550011
ltoes  -4.250644065 -19.5611806 -102.515957
95
root  16.39962234 35.31733235 -5.51137774 -15.1498003 -54.49570084 12.50720024
lowerback  9.261039734 3.426860094 -2.753940105
upperback  4.614990234 4.170609951 -3.021980047
thorax  -0.3591679931 2.027780056 -1.970679998
lowerneck  3.41437006 8.066969872 -10.32380009
upperneck  17.24839973 10.32240009 2.844850063
head  3.981090069 4.47740984 2.727210045
lclavicle  0 -9.442270133e-015 7.951389973e-016
lhumerus  9.058939934 -0.9421589971 77.37619781
lradius  2.54264598e-031 -2.450264365e-031 136.0599976
lwrist  -7.062250077e-031 -0 12.5994997
lhand  -1.496451383e-031 -27.76390076 20.11240005
lfingers  90 7.125020027 -90
lthumb  89.89689403 5.08795885 91.16245106
rclavicle  0 -9.442270133e-015 7.951389973e-016
rhumerus  12.28800011 17.35659981 -76.62220001
rradius  -2.682084468e-031 2.296794929e-031 139.4250031
rwrist  1.412450015e-030 1.765562519e-031 -16.4470005
rhand  -7.920061211e-032 -33.2840004 9.303460121
rfingers  -90 -7.125020027 -90
rthumb  -92.93752616 -24.25625642 -97.11982154
rfemur  -12.73130035 8.364569664 -3.669300079
rtibia  -0 0 72.59369659
rfoot  -0 -26.58440018 -14.49740028
rtoes  5.373923086 19.29304026 -105.8922705
lfemur  -23.40749931 -5.655849934 -4.227210045
ltibia  -0 0 58.20069885
lfoot  -0 -20.7852993 -9.835689545
ltoes  -4.250644065 -19.5611806 -102.515957
96
root  16.42780004 35.38755582 -5.506777951 -15.57479954 -54.23160172 12.6257
lowerback  9.365119934 3.546089888 -2.616019964
upperback  4.643610001 4.337749958 -2.962389946
thorax  -0.3786680102 2.113470078 -2.007369995
lowerneck  3.411010027 7.971779823 -9.824170113
upperneck  16.89100075 10.17940044 3.021630049
head  3.889709949 4.466650009 2.692660093
lclavicle  0 -9.442270133e-015 7.951389973e-016
lhumerus  9.135199547 -1.702880025 77.07830048
lradius  2.53497858e-031 -2.458196012e-031 135.8809967
lwrist  -1.412450015e-030 -0 12.76099968
lhand  -1.496451383e-031 -27.76390076 20.11240005
lfingers  90 7.125020027 -90
lthumb  89.89689403 5.08795885 91.16245106
rclavicle  0 -9.442270133e-015 7.951389973e-016
rhumerus  11.46590042 17.2465992 -76.89550018
rradius  -2.664690693e-031 2.316952211e-031 138.9929962
rwrist  7.062250077e-031 -1.765562519e-031 -15.57380009
rhand  -7.920061211e-032 -33.2840004 9.303460121
rfingers  -90 -7.125020027 -90
rthumb  -92.93752616 -24.25625642 -97.11982154
rfemur  -12.49069977 7.00797987 -4.204639912
rtibia  -0 0 72.47689819
rfoot  -0 -26.2826004 -13.57579994
rtoes  5.373923086 19.29304026 -105.8922705
lfemur  -22.81809998 -5.753210068 -4.62443018
ltibia  -0 0 57.5945015
lfoot  -0 -20.81949997 -9.393870354
ltoes  -4.250644065 -19.5611806 -102.515957
